<svg width="14" height="16" viewBox="0 0 14 16" fill="none" xmlns="http://www.w3.org/2000/svg">
<path d="M8.00024 1V1.6C10.2815 2.06344 12.0002 4.08125 12.0002 6.5V7.0875C12.0002 8.55937 12.5409 9.975 13.5159 11.075L13.7471 11.3344C14.0096 11.6313 14.0752 12.05 13.9127 12.4094C13.7502 12.7688 13.394 13 13.0002 13H1.00024C0.606487 13 0.24933 12.7688 0.0880179 12.4094C-0.0732946 12.05 -0.00877273 11.6313 0.252862 11.3344L0.484612 11.075C1.46086 9.975 2.00024 8.55937 2.00024 7.0875V6.5C2.00024 4.08125 3.69086 2.06344 6.00024 1.6V1C6.00024 0.447812 6.44711 0 7.00024 0C7.55336 0 8.00024 0.447812 8.00024 1ZM7.00024 16C6.46899 16 5.95961 15.7906 5.58461 15.4156C5.20961 15.0406 5.00024 14.5031 5.00024 14H9.00024C9.00024 14.5031 8.79086 15.0406 8.41586 15.4156C8.04086 15.7906 7.50336 16 7.00024 16Z" fill="#212121"/>
</svg>
