<svg width="105" height="60" viewBox="0 0 105 60" fill="none" xmlns="http://www.w3.org/2000/svg">
<path d="M62.895 24.9998H52.6803L59.6603 0L33.89 35.0002H44.1069L34.3231 60L62.895 24.9998Z" fill="#D4FF6C"/>
<path d="M-0.000118256 39.5968V22.1819H5.64807V23.9991C7.39011 22.7876 9.52303 22.1819 12.0469 22.1819C12.7236 22.1819 13.3358 22.2012 13.89 22.2431C14.4881 22.2886 15.083 22.3693 15.6717 22.4847C16.2529 22.5884 16.8211 22.7548 17.3665 22.9809C17.886 23.2057 18.3753 23.4947 18.8228 23.8412C19.2917 24.1967 19.6933 24.6332 20.0086 25.13C20.3536 25.6925 20.608 26.3057 20.7625 26.9472C20.955 27.737 21.0481 28.5477 21.0396 29.3605C21.058 30.414 20.8121 31.4553 20.3243 32.3892C19.8646 33.2612 19.1834 33.9969 18.3492 34.5222C17.4769 35.07 16.5247 35.4787 15.5267 35.7337C14.4292 36.0165 13.2995 36.1551 12.1662 36.1461C10.8133 36.1568 9.46611 35.969 8.16771 35.5887C6.92401 35.2171 6.08412 34.8057 5.64807 34.3546V39.6001L-0.000118256 39.5968ZM11.2479 32.0219H11.4509L11.9857 31.9736C12.2394 31.9504 12.4907 31.9051 12.7365 31.8382C13.008 31.7607 13.2722 31.6594 13.5259 31.5354C13.8002 31.4097 14.0535 31.2423 14.2766 31.0392C14.5027 30.8217 14.6843 30.5623 14.8114 30.2756C14.9592 29.9443 15.0328 29.5847 15.0273 29.222C15.0377 28.794 14.9599 28.3684 14.7985 27.9718C14.6629 27.6511 14.4557 27.3657 14.1928 27.1373C13.899 26.9039 13.56 26.7339 13.1972 26.6379C12.7761 26.5172 12.3446 26.4363 11.9084 26.3963C11.4638 26.3576 10.9418 26.335 10.2974 26.335C9.30739 26.3208 8.32358 26.4936 7.3976 26.8441C6.54377 27.1857 5.96061 27.582 5.65452 28.033V30.311C5.86871 30.5709 6.122 30.7959 6.40528 30.978C6.70973 31.1799 7.0403 31.3392 7.38793 31.4516C7.73268 31.5644 8.09034 31.6642 8.45443 31.7545C8.79678 31.8384 9.1445 31.8987 9.49513 31.9349C9.81733 31.9671 10.1395 31.9929 10.3941 32.009C10.6486 32.0251 10.8645 32.0315 11.0095 32.0315L11.2479 32.0219Z" fill="black"/>
<path d="M73.0422 22.0111C74.4139 22.0021 75.7839 22.1098 77.1374 22.3333C78.1657 22.4918 79.1716 22.7719 80.1338 23.1678C80.8471 23.4724 81.509 23.8854 82.0961 24.3922C82.5667 24.7911 82.9506 25.2824 83.2238 25.8356C83.445 26.3099 83.5605 26.8266 83.5621 27.35L77.8946 28.1941C77.8888 28.1254 77.869 28.0585 77.8366 27.9976C77.7353 27.8406 77.6175 27.6947 77.4854 27.5626C77.2731 27.3401 77.0274 27.152 76.7572 27.0052C76.3386 26.7982 75.8944 26.6476 75.4362 26.5573C74.7718 26.4116 74.0929 26.3424 73.4128 26.3511C72.7457 26.3428 72.0794 26.4033 71.4247 26.5316C70.9748 26.6142 70.5401 26.7652 70.1359 26.9794C69.6167 27.2898 69.2388 27.7902 69.0823 28.3746C69.0303 28.6257 69.0054 28.8817 69.0082 29.1382C69.0068 29.3454 69.023 29.5523 69.0566 29.7568C69.0969 29.9785 69.1628 30.1948 69.2531 30.4012C69.3541 30.6409 69.5124 30.8522 69.7139 31.0166C69.9506 31.2137 70.2102 31.3814 70.4872 31.516C70.8719 31.6911 71.2799 31.8094 71.6986 31.8672C72.2692 31.9521 72.8456 31.992 73.4225 31.9864C73.9535 31.9896 74.4841 31.9572 75.0109 31.8898C75.4061 31.8437 75.7957 31.7584 76.174 31.6352C76.4496 31.5405 76.7169 31.423 76.973 31.284C77.1689 31.183 77.3482 31.0526 77.5047 30.8974C77.6103 30.7871 77.7082 30.6698 77.7979 30.5462C77.855 30.4688 77.8997 30.3829 77.93 30.2917L77.9558 30.195L83.5781 30.9683C83.5815 31.5051 83.4786 32.0373 83.2753 32.5342C83.0296 33.0866 82.6655 33.5782 82.2088 33.9744C81.6421 34.4811 80.9954 34.8905 80.2949 35.1859C79.3422 35.5787 78.3443 35.8514 77.3243 35.9978C75.9613 36.2117 74.5829 36.313 73.2033 36.3007C71.8649 36.3167 70.5283 36.1958 69.2145 35.9398C68.2259 35.7547 67.2703 35.4235 66.3791 34.9571C65.6756 34.5717 65.0575 34.0478 64.5619 33.417C64.1022 32.8382 63.7607 32.1749 63.5566 31.4645C63.3529 30.7193 63.2543 29.9493 63.2634 29.1768C63.2634 26.9107 64.056 25.1525 65.6413 23.9024C67.2265 22.6523 69.6935 22.0218 73.0422 22.0111Z" fill="black"/>
<path d="M103.027 24.8464C103.434 25.9929 103.667 27.1942 103.716 28.4099C103.822 29.8985 103.874 32.1045 103.874 35.0279V36.1427H98.2262V30.6041C98.2262 30.4366 98.2262 30.1885 98.2037 29.8663C98.1958 29.6098 98.1667 29.3544 98.1167 29.1026C98.078 28.9158 98.0168 28.6806 97.9362 28.4003C97.8744 28.1603 97.7766 27.9311 97.6463 27.7204C97.5125 27.5252 97.3661 27.3391 97.208 27.163C97.0405 26.9688 96.8342 26.8119 96.6023 26.7023C96.3416 26.5853 96.0695 26.4957 95.7904 26.4348C95.4518 26.3603 95.106 26.3235 94.7593 26.3253C92.4653 26.3253 90.7844 26.8268 89.7169 27.83V36.1427H84.0687V20.4H89.7169V24.0956C91.519 22.7059 93.7004 22.011 96.2608 22.011C96.8601 22.011 97.3821 22.011 97.8267 22.0464C98.343 22.0813 98.8563 22.1502 99.3635 22.2527C99.8842 22.3481 100.392 22.5027 100.878 22.7134C101.329 22.9239 101.743 23.2069 102.102 23.5511C102.5 23.9111 102.816 24.3529 103.027 24.8464Z" fill="black"/>
<path d="M42.2148 22.0851H36.6536V29.2605C35.019 30.7297 33.2082 31.4643 31.2213 31.4643C30.7115 31.4711 30.2029 31.4148 29.707 31.2968C29.3297 31.2073 28.9634 31.0766 28.6148 30.9069C28.3249 30.7534 28.0762 30.5324 27.8898 30.2625C27.7163 30.0275 27.5663 29.7761 27.4419 29.5118C27.3244 29.2195 27.2464 28.9129 27.2099 28.6C27.1551 28.2133 27.1229 27.9137 27.1132 27.7042C27.1036 27.4948 27.1132 27.1887 27.1132 26.7827V22.0851H21.5102L21.4844 23.1999C21.4844 25.945 21.5575 27.9974 21.7036 29.3571C21.8033 30.5371 22.0984 31.6924 22.5767 32.7757C22.8382 33.3744 23.2162 33.9151 23.6885 34.3665C24.1609 34.8179 24.7183 35.1708 25.3283 35.4048C26.5656 35.8817 28.2732 36.1652 30.4545 36.1652C33.1545 36.1652 35.2134 35.4081 36.6375 33.9872V36.1427H39.3376L41.3674 30.9553H37.6203L42.2213 24.7045L44.1545 22.0851H42.2148Z" fill="black"/>
<path d="M62.6841 28.3262C62.6436 27.1742 62.4027 26.0381 61.9721 24.9688C61.7213 24.3701 61.3397 23.835 60.8552 23.4029C60.3707 22.9708 59.7956 22.6527 59.1721 22.4718C58.5751 22.2876 57.9625 22.1582 57.342 22.0851C56.673 22.0164 56.0008 21.9841 55.3283 21.9885C54.6392 21.9821 53.9508 22.0306 53.2694 22.1335C52.6952 22.2221 52.1357 22.3891 51.6068 22.6297C51.2011 22.8103 50.8053 23.0125 50.4212 23.2354C50.1376 23.4072 49.737 23.6779 49.2193 24.0473V22.0851H45.978L44.5281 27.2726H48.285L42.2147 34.7122L41.0451 36.1428H49.2193V28.0233C49.7175 27.5001 50.3044 27.0692 50.9528 26.7506C51.7377 26.42 52.586 26.2671 53.437 26.3028C53.8114 26.2991 54.1852 26.3358 54.5518 26.4123C54.8525 26.4708 55.1455 26.5638 55.4249 26.6894C55.6667 26.8013 55.8853 26.9576 56.0693 27.1501C56.2343 27.3209 56.3871 27.5028 56.5268 27.6947C56.6701 27.9025 56.7789 28.132 56.849 28.3745C56.9393 28.658 57.0037 28.8932 57.0456 29.0769C57.0928 29.3293 57.1251 29.5843 57.1423 29.8405C57.1649 30.1627 57.1777 30.4108 57.1777 30.5816V36.1428H62.8259V35.028C62.8216 31.9348 62.7744 29.7009 62.6841 28.3262Z" fill="black"/>
</svg>
