<svg xmlns="http://www.w3.org/2000/svg" width="72" height="72" fill="none" viewBox="0 0 72 72">
  <path fill="url(#a)" d="M59.182 29.788c-.59-2.202.144-4.449 1.705-5.923 1.483-1.422 1.94-3.657 1.404-5.656l-1.972-7.36c-.854-3.188-4.16-5.097-7.349-4.243L6.607 19.029a5.966 5.966 0 0 0-4.221 7.312l1.98 7.39c.535 1.999 2.02 3.713 4.036 4.166 2.097.526 3.827 2.112 4.417 4.314a5.97 5.97 0 0 1-1.705 5.924c-1.483 1.422-1.94 3.656-1.404 5.656l1.972 7.36c.854 3.187 4.16 5.097 7.348 4.243L65.394 52.97c3.187-.854 5.097-4.16 4.242-7.348l-1.972-7.36c-.535-2-2.049-3.706-4.044-4.197-2.09-.496-3.848-2.075-4.438-4.277ZM46.428 45.939l-8.487-2.695-5.994 6.607c-.915.99-2.607.356-2.6-1.012l-.064-8.928-8.124-3.662c-1.24-.568-1.16-2.36.15-2.804l8.445-2.79.994-8.808c.166-1.35 1.905-1.815 2.695-.722l5.273 7.159 8.709-1.806c1.327-.262 2.32 1.242 1.531 2.354l-5.205 7.234 4.423 7.697c.697 1.211-.45 2.606-1.746 2.176Z"/>
  <defs>
    <linearGradient id="a" x1="29.788" x2="42.212" y1="12.818" y2="59.182" gradientUnits="userSpaceOnUse">
      <stop stop-color="#A0F"/>
      <stop offset="1" stop-color="#2962FF"/>
    </linearGradient>
  </defs>
</svg>
