<svg width="32" height="32" viewBox="0 0 32 32" fill="none" xmlns="http://www.w3.org/2000/svg">
<path d="M0 10C0 4.47715 4.47715 0 10 0H22C27.5228 0 32 4.47715 32 10V22C32 27.5228 27.5228 32 22 32H10C4.47715 32 0 27.5228 0 22V10Z" fill="#FFD600"/>
<path d="M6.94689 13.3594L4.43076 13.3511L4.78434 11.353L7.06201 11.3695C7.42381 11.364 7.73353 11.2763 7.99117 11.1064C8.24882 10.9309 8.4489 10.7062 8.59143 10.4321C8.73943 10.1525 8.83811 9.84281 8.88744 9.50294C8.92033 9.25078 8.92307 8.98217 8.89566 8.69712C8.86826 8.41207 8.78055 8.16539 8.63254 7.95708C8.49001 7.74878 8.25978 7.63366 7.94184 7.61173L6.19863 7.59529L4.47187 17.5694H2.12842L4.1923 5.59718L8.04873 5.6054C8.77781 5.62733 9.39176 5.81371 9.89061 6.16454C10.3949 6.5099 10.7622 6.97311 10.9924 7.55417C11.2282 8.13524 11.3159 8.77935 11.2556 9.4865C11.1843 10.2814 10.9541 10.9666 10.5649 11.5422C10.1811 12.1177 9.67956 12.5673 9.06012 12.8907C8.44068 13.2086 7.73627 13.3649 6.94689 13.3594Z" fill="#FFFF00"/>
<path d="M13.4921 5.59718L17.1101 5.6054C17.8282 5.62733 18.4312 5.78356 18.9191 6.0741C19.4124 6.35915 19.777 6.7648 20.0127 7.29105C20.2539 7.81182 20.3443 8.43126 20.284 9.14937C20.2347 9.74688 20.1059 10.2704 19.8976 10.7199C19.6948 11.1639 19.4097 11.5531 19.0424 11.8875C18.6751 12.2164 18.2256 12.5042 17.6939 12.7509L16.8963 13.1785H13.7553L14.1006 11.1804L16.0905 11.1968C16.4578 11.1913 16.7702 11.1064 17.0279 10.9419C17.2855 10.7775 17.4883 10.5554 17.6363 10.2759C17.7898 9.9963 17.8885 9.68658 17.9324 9.34671C17.9653 9.08907 17.968 8.82869 17.9406 8.56556C17.9187 8.30244 17.8364 8.08042 17.6939 7.89952C17.5514 7.71863 17.3239 7.61995 17.0114 7.60351L15.5067 7.59529L13.7799 17.5694H11.4282L13.4921 5.59718ZM16.7483 17.5694L15.5396 12.2329L17.9077 12.2246L19.2562 17.4378V17.5694H16.7483Z" fill="#FFFF00"/>
<path d="M29.8059 10.6541L29.5099 12.6358C29.4057 13.31 29.233 13.9596 28.9918 14.5845C28.7506 15.204 28.43 15.7522 28.0298 16.2291C27.6296 16.706 27.1445 17.0815 26.5744 17.3556C26.0043 17.6242 25.3437 17.7503 24.5927 17.7338C23.8746 17.7174 23.2743 17.5639 22.792 17.2734C22.315 16.9828 21.9423 16.5964 21.6737 16.114C21.4051 15.6316 21.2296 15.0916 21.1474 14.4941C21.0707 13.8911 21.0707 13.2771 21.1474 12.6522L21.4434 10.6623C21.5476 9.9826 21.7203 9.33027 21.9615 8.70535C22.2027 8.07494 22.5233 7.51032 22.9235 7.01148C23.3292 6.51264 23.8198 6.12069 24.3954 5.83564C24.971 5.5451 25.6397 5.4108 26.4017 5.43273C27.1308 5.44917 27.7338 5.61089 28.2107 5.91786C28.6876 6.22484 29.0576 6.63049 29.3207 7.13482C29.5839 7.63366 29.7511 8.19006 29.8223 8.80402C29.8936 9.41249 29.8881 10.0292 29.8059 10.6541ZM27.1829 12.6522L27.4706 10.6212C27.509 10.3417 27.5364 10.0265 27.5529 9.67562C27.5748 9.3193 27.5556 8.97395 27.4953 8.63956C27.435 8.29969 27.3089 8.01738 27.1171 7.79263C26.9252 7.56788 26.6292 7.44728 26.229 7.43083C25.7905 7.40891 25.4232 7.49661 25.1272 7.69396C24.8367 7.8913 24.6009 8.15717 24.42 8.49156C24.2391 8.82046 24.0994 9.17404 24.0007 9.55228C23.9075 9.93052 23.8335 10.2923 23.7787 10.6377L23.4991 12.6604C23.4607 12.9455 23.4333 13.2607 23.4169 13.606C23.4004 13.9514 23.4251 14.2858 23.4909 14.6092C23.5621 14.9272 23.6937 15.193 23.8856 15.4068C24.0829 15.6151 24.3817 15.7275 24.7818 15.7439C25.2039 15.7659 25.5575 15.6836 25.8426 15.4973C26.1276 15.3054 26.3606 15.0532 26.5415 14.7408C26.7224 14.4283 26.8622 14.0884 26.9608 13.7212C27.0595 13.3484 27.1335 12.9921 27.1829 12.6522Z" fill="#FFFF00"/>
<path d="M5.77109 24.8291L8.10215 18.7491H9.84238L6.41562 26.5694H5.27695L5.77109 24.8291ZM5.54014 18.7491L5.96982 24.9634L5.94297 26.5694H4.84189L3.88584 18.7491H5.54014Z" fill="#FFFF00"/>
<path d="M12.2057 18.7491L10.8468 26.5694H9.32139L10.6803 18.7491H12.2057Z" fill="#FFFF00"/>
<path d="M14.1983 26.5694H12.7804L13.0167 25.2696L14.2735 25.2749C14.6961 25.2785 15.0326 25.1926 15.2833 25.0171C15.5375 24.8381 15.7273 24.5982 15.8526 24.2974C15.978 23.993 16.0693 23.6493 16.1266 23.2661L16.2984 22.0415C16.3271 21.816 16.3468 21.5886 16.3575 21.3594C16.3718 21.1302 16.3539 20.919 16.3038 20.7256C16.2537 20.5323 16.1534 20.3765 16.003 20.2583C15.8562 20.1366 15.6378 20.0703 15.3478 20.0596L13.8814 20.0542L14.1124 18.7491L15.4122 18.7544C15.8849 18.7652 16.2859 18.8618 16.6153 19.0445C16.9448 19.2271 17.2079 19.4724 17.4049 19.7803C17.6054 20.0882 17.7397 20.4374 17.8077 20.8277C17.8757 21.218 17.8829 21.628 17.8292 22.0576L17.6466 23.2715C17.575 23.7334 17.4479 24.1667 17.2652 24.5713C17.0862 24.9724 16.8517 25.3233 16.5616 25.6241C16.2752 25.9213 15.935 26.154 15.5411 26.3223C15.1508 26.4906 14.7032 26.5729 14.1983 26.5694ZM15.0255 18.7491L13.672 26.5694H12.1358L13.484 18.7491H15.0255Z" fill="#FFFF00"/>
<path d="M22.7491 25.2696L22.5182 26.5694H19.2203L19.4405 25.2696H22.7491ZM21.0519 18.7491L19.6983 26.5694H18.1622L19.5104 18.7491H21.0519ZM22.8888 21.918L22.6686 23.1802H19.8058L20.0206 21.918H22.8888ZM23.8663 18.7491L23.6354 20.0542H20.3429L20.5738 18.7491H23.8663Z" fill="#FFFF00"/>
<path d="M24.7579 18.7491L27.1212 18.7544C27.5903 18.7688 27.9841 18.8708 28.3028 19.0606C28.6251 19.2468 28.8632 19.5118 29.0172 19.8555C29.1747 20.1957 29.2338 20.6003 29.1944 21.0694C29.1622 21.4597 29.0781 21.8016 28.942 22.0952C28.8095 22.3853 28.6233 22.6395 28.3834 22.8579C28.1435 23.0728 27.8499 23.2608 27.5025 23.4219L26.9815 23.7012H24.9298L25.1554 22.396L26.4552 22.4068C26.6951 22.4032 26.8992 22.3477 27.0675 22.2403C27.2358 22.1328 27.3683 21.9878 27.4649 21.8052C27.5652 21.6226 27.6297 21.4203 27.6583 21.1983C27.6798 21.03 27.6816 20.8599 27.6637 20.688C27.6493 20.5161 27.5956 20.3711 27.5025 20.253C27.4094 20.1348 27.2608 20.0703 27.0567 20.0596L26.0738 20.0542L24.9459 26.5694H23.4098L24.7579 18.7491ZM26.8849 26.5694L26.0953 23.0835L27.6422 23.0782L28.523 26.4834V26.5694H26.8849Z" fill="#FFFF00"/>
</svg>
