<svg width="32" height="32" viewBox="0 0 32 32" fill="none" xmlns="http://www.w3.org/2000/svg">
<path d="M9.17676 7.99414H7.43066V6.57031H9.17676C9.41895 6.57031 9.61621 6.51562 9.76855 6.40625C9.9248 6.29688 10.0381 6.14648 10.1084 5.95508C10.1787 5.75977 10.2139 5.54102 10.2139 5.29883C10.2139 5.05273 10.1768 4.82422 10.1025 4.61328C10.0322 4.39844 9.9209 4.22461 9.76855 4.0918C9.62012 3.95898 9.42285 3.89258 9.17676 3.89258H7.98145V11H6.27051V2.46875H9.17676C9.75098 2.46875 10.2451 2.58984 10.6592 2.83203C11.0732 3.07422 11.3896 3.4082 11.6084 3.83398C11.8311 4.25586 11.9424 4.74023 11.9424 5.28711C11.9424 5.83789 11.8311 6.31641 11.6084 6.72266C11.3896 7.125 11.0732 7.4375 10.6592 7.66016C10.2451 7.88281 9.75098 7.99414 9.17676 7.99414Z" fill="#00E5FF"/>
<path d="M13.0967 2.46875H15.833C16.4033 2.46875 16.8896 2.56641 17.292 2.76172C17.6943 2.95703 18.0029 3.24609 18.2178 3.62891C18.4326 4.01172 18.54 4.48438 18.54 5.04688C18.54 5.50781 18.4775 5.90234 18.3525 6.23047C18.2275 6.55469 18.0498 6.82617 17.8193 7.04492C17.5889 7.25977 17.3135 7.43164 16.9932 7.56055L16.4717 7.87109H14.251L14.2451 6.44727H15.7861C16.0205 6.44727 16.2139 6.39648 16.3662 6.29492C16.5225 6.18945 16.6377 6.04297 16.7119 5.85547C16.79 5.66406 16.8291 5.44141 16.8291 5.1875C16.8291 4.91797 16.7939 4.6875 16.7236 4.49609C16.6572 4.30078 16.5498 4.15234 16.4014 4.05078C16.2568 3.94531 16.0674 3.89258 15.833 3.89258H14.8135V11H13.0967V2.46875ZM16.9697 11L15.4053 7.19727L17.2041 7.19141L18.8037 10.918V11H16.9697Z" fill="#00E5FF"/>
<path d="M25.7295 6.07227V7.49609C25.7295 8.09766 25.6553 8.625 25.5068 9.07812C25.3623 9.52734 25.1553 9.9043 24.8857 10.209C24.6201 10.5098 24.2979 10.7363 23.9189 10.8887C23.5439 11.041 23.1279 11.1172 22.6709 11.1172C22.2139 11.1172 21.7959 11.041 21.417 10.8887C21.042 10.7363 20.7178 10.5098 20.4443 10.209C20.1748 9.9043 19.9658 9.52734 19.8174 9.07812C19.6689 8.625 19.5947 8.09766 19.5947 7.49609V6.07227C19.5947 5.45508 19.667 4.91602 19.8115 4.45508C19.9561 3.99023 20.165 3.60352 20.4385 3.29492C20.7119 2.98242 21.0361 2.74805 21.4111 2.5918C21.7861 2.43164 22.2021 2.35156 22.6592 2.35156C23.1162 2.35156 23.5322 2.43164 23.9072 2.5918C24.2822 2.74805 24.6064 2.98242 24.8799 3.29492C25.1533 3.60352 25.3623 3.99023 25.5068 4.45508C25.6553 4.91602 25.7295 5.45508 25.7295 6.07227ZM24.0244 7.49609V6.06055C24.0244 5.6543 23.9951 5.30859 23.9365 5.02344C23.8779 4.73438 23.79 4.49805 23.6729 4.31445C23.5557 4.13086 23.4131 3.99609 23.2451 3.91016C23.0771 3.82422 22.8818 3.78125 22.6592 3.78125C22.4365 3.78125 22.2393 3.82422 22.0674 3.91016C21.8994 3.99609 21.7568 4.13086 21.6396 4.31445C21.5264 4.49805 21.4404 4.73438 21.3818 5.02344C21.3271 5.30859 21.2998 5.6543 21.2998 6.06055V7.49609C21.2998 7.88672 21.3291 8.2207 21.3877 8.49805C21.4463 8.77539 21.5342 9.00195 21.6514 9.17773C21.7686 9.35352 21.9111 9.48438 22.0791 9.57031C22.251 9.65234 22.4482 9.69336 22.6709 9.69336C22.8896 9.69336 23.083 9.65234 23.251 9.57031C23.4229 9.48438 23.5654 9.35352 23.6787 9.17773C23.792 9.00195 23.8779 8.77539 23.9365 8.49805C23.9951 8.2207 24.0244 7.88672 24.0244 7.49609Z" fill="#00E5FF"/>
<path d="M13.0852 18.4084L16.3958 12.1172H20.1862L15.1244 20.1172H12.5694L13.0852 18.4084ZM10.2544 12.1172L13.553 18.4084L14.0928 20.1172H11.5259L6.5 12.1172H10.2544Z" fill="#00E5FF"/>
<path d="M25.5 12.1172V20.1172H22.0095V12.1172H25.5Z" fill="#00E5FF"/>
<path d="M9.03027 29.6484H7.52441L7.53613 28.2305H9.03027C9.44434 28.2305 9.7666 28.1562 9.99707 28.0078C10.2275 27.8594 10.3896 27.625 10.4834 27.3047C10.5811 26.9844 10.6299 26.5645 10.6299 26.0449V24.7148C10.6299 24.3203 10.6045 23.9863 10.5537 23.7129C10.5029 23.4355 10.417 23.2129 10.2959 23.0449C10.1748 22.873 10.0127 22.7461 9.80957 22.6641C9.60645 22.582 9.35449 22.541 9.05371 22.541H7.49512V21.1172H9.05371C9.5459 21.1172 9.99316 21.1973 10.3955 21.3574C10.7979 21.5176 11.1436 21.752 11.4326 22.0605C11.7217 22.3652 11.9443 22.7422 12.1006 23.1914C12.2568 23.6406 12.335 24.1523 12.335 24.7266V26.0449C12.335 26.623 12.2568 27.1348 12.1006 27.5801C11.9443 28.0254 11.7217 28.4023 11.4326 28.7109C11.1475 29.0156 10.8018 29.248 10.3955 29.4082C9.98926 29.5684 9.53418 29.6484 9.03027 29.6484ZM8.52051 21.1172V29.6484H6.80371V21.1172H8.52051Z" fill="#00E5FF"/>
<path d="M18.4814 28.2305V29.6484H14.7725V28.2305H18.4814ZM15.3057 21.1172V29.6484H13.5889V21.1172H15.3057ZM17.9834 24.5742V25.9512H14.7725V24.5742H17.9834ZM18.4697 21.1172V22.541H14.7725V21.1172H18.4697Z" fill="#00E5FF"/>
<path d="M19.4893 21.1172H22.2256C22.7959 21.1172 23.2822 21.2148 23.6846 21.4102C24.0869 21.6055 24.3955 21.8945 24.6104 22.2773C24.8252 22.6602 24.9326 23.1328 24.9326 23.6953C24.9326 24.1562 24.8701 24.5508 24.7451 24.8789C24.6201 25.2031 24.4424 25.4746 24.2119 25.6934C23.9814 25.9082 23.7061 26.0801 23.3857 26.209L22.8643 26.5195H20.6436L20.6377 25.0957H22.1787C22.4131 25.0957 22.6064 25.0449 22.7588 24.9434C22.915 24.8379 23.0303 24.6914 23.1045 24.5039C23.1826 24.3125 23.2217 24.0898 23.2217 23.8359C23.2217 23.5664 23.1865 23.3359 23.1162 23.1445C23.0498 22.9492 22.9424 22.8008 22.7939 22.6992C22.6494 22.5938 22.46 22.541 22.2256 22.541H21.2061V29.6484H19.4893V21.1172ZM23.3623 29.6484L21.7979 25.8457L23.5967 25.8398L25.1963 29.5664V29.6484H23.3623Z" fill="#00E5FF"/>
</svg>
