<svg width="32" height="32" viewBox="0 0 32 32" fill="none" xmlns="http://www.w3.org/2000/svg">
<path d="M0 10C0 4.47715 4.47715 0 10 0H22C27.5228 0 32 4.47715 32 10V22C32 27.5228 27.5228 32 22 32H10C4.47715 32 0 27.5228 0 22V10Z" fill="#304FFE"/>
<path d="M6.59081 8.84998C7.34281 8.84998 7.99881 8.97798 8.55881 9.23398C9.11881 9.48998 9.54681 9.83798 9.84281 10.278C10.1388 10.718 10.2868 11.21 10.2868 11.754C10.2868 12.65 10.0068 13.354 9.44681 13.866C8.88681 14.37 7.93481 14.622 6.59081 14.622H5.00681V16.926C5.00681 17.014 4.97481 17.09 4.91081 17.154C4.84681 17.218 4.77081 17.25 4.68281 17.25H2.10281C2.01481 17.25 1.93881 17.218 1.87481 17.154C1.81081 17.09 1.77881 17.014 1.77881 16.926V9.17398C1.77881 9.08598 1.81081 9.00998 1.87481 8.94598C1.93881 8.88198 2.01481 8.84998 2.10281 8.84998H6.59081ZM6.54281 12.402C6.73481 12.402 6.88681 12.346 6.99881 12.234C7.11081 12.114 7.16681 11.958 7.16681 11.766C7.16681 11.566 7.11081 11.402 6.99881 11.274C6.88681 11.146 6.73481 11.082 6.54281 11.082H5.01881V12.402H6.54281Z" fill="white"/>
<path d="M20.3261 16.878C20.3421 16.91 20.3501 16.946 20.3501 16.986C20.3501 17.058 20.3221 17.122 20.2661 17.178C20.2181 17.226 20.1581 17.25 20.0861 17.25H17.3621C17.2501 17.25 17.1461 17.222 17.0501 17.166C16.9621 17.11 16.8981 17.038 16.8581 16.95L15.8021 14.574H14.7941V16.926C14.7941 17.014 14.7621 17.09 14.6981 17.154C14.6341 17.218 14.5581 17.25 14.4701 17.25H11.8781C11.7901 17.25 11.7141 17.218 11.6501 17.154C11.5861 17.09 11.5541 17.014 11.5541 16.926V9.17398C11.5541 9.08598 11.5861 9.00998 11.6501 8.94598C11.7141 8.88198 11.7901 8.84998 11.8781 8.84998H16.5461C17.2661 8.84998 17.8941 8.96598 18.4301 9.19798C18.9741 9.42998 19.3901 9.76598 19.6781 10.206C19.9661 10.646 20.1101 11.162 20.1101 11.754C20.1101 12.842 19.6901 13.63 18.8501 14.118L20.3261 16.878ZM16.2941 12.354C16.4701 12.354 16.6061 12.298 16.7021 12.186C16.7981 12.066 16.8461 11.918 16.8461 11.742C16.8461 11.566 16.7981 11.414 16.7021 11.286C16.6141 11.15 16.4781 11.082 16.2941 11.082H14.7941V12.354H16.2941Z" fill="white"/>
<path d="M30.2214 13.782C30.2214 15.006 29.8134 15.91 28.9974 16.494C28.1894 17.078 27.1094 17.37 25.7574 17.37C24.4054 17.37 23.3214 17.078 22.5054 16.494C21.6974 15.91 21.2934 14.998 21.2934 13.758V12.342C21.2934 11.526 21.4854 10.85 21.8694 10.314C22.2614 9.76998 22.7934 9.36998 23.4654 9.11398C24.1374 8.85798 24.9014 8.72998 25.7574 8.72998C26.6134 8.72998 27.3734 8.85798 28.0374 9.11398C28.7094 9.36998 29.2414 9.76598 29.6334 10.302C30.0254 10.838 30.2214 11.51 30.2214 12.318V13.782ZM24.5334 14.01C24.5334 14.338 24.6414 14.59 24.8574 14.766C25.0814 14.942 25.3814 15.03 25.7574 15.03C26.1334 15.03 26.4294 14.942 26.6454 14.766C26.8694 14.582 26.9814 14.326 26.9814 13.998V12.102C26.9814 11.774 26.8694 11.522 26.6454 11.346C26.4294 11.162 26.1334 11.07 25.7574 11.07C25.3814 11.07 25.0814 11.158 24.8574 11.334C24.6414 11.51 24.5334 11.762 24.5334 12.09V14.01Z" fill="white"/>
<path d="M6.6815 18.37C6.7235 18.37 6.7585 18.3863 6.7865 18.419C6.81916 18.447 6.8355 18.482 6.8355 18.524L6.8285 18.573L5.2185 23.039C5.19516 23.1043 5.15783 23.1603 5.1065 23.207C5.05516 23.249 4.9875 23.27 4.9035 23.27H3.2725C3.1885 23.27 3.12083 23.249 3.0695 23.207C3.01816 23.1603 2.98316 23.1113 2.9645 23.06L1.3405 18.573L1.3335 18.524C1.3335 18.482 1.3475 18.447 1.3755 18.419C1.40816 18.3863 1.4455 18.37 1.4875 18.37H2.9645C3.0485 18.37 3.11616 18.3957 3.1675 18.447C3.2235 18.4937 3.26083 18.545 3.2795 18.601L4.0845 21.282L4.8895 18.601C4.90816 18.5403 4.94316 18.4867 4.9945 18.44C5.04583 18.3933 5.11583 18.37 5.2045 18.37H6.6815Z" fill="white"/>
<path d="M10.9838 21.835H12.2508C12.3021 21.835 12.3464 21.8537 12.3838 21.891C12.4211 21.9283 12.4398 21.9727 12.4398 22.024V23.081C12.4398 23.1323 12.4211 23.1767 12.3838 23.214C12.3464 23.2513 12.3021 23.27 12.2508 23.27H7.81276C7.76143 23.27 7.7171 23.2513 7.67976 23.214C7.64243 23.1767 7.62376 23.1323 7.62376 23.081V22.024C7.62376 21.9727 7.64243 21.9283 7.67976 21.891C7.7171 21.8537 7.76143 21.835 7.81276 21.835H9.09376V19.805H7.81276C7.76143 19.805 7.7171 19.7863 7.67976 19.749C7.64243 19.7117 7.62376 19.6673 7.62376 19.616V18.559C7.62376 18.5077 7.64243 18.4633 7.67976 18.426C7.7171 18.3887 7.76143 18.37 7.81276 18.37H12.2508C12.3021 18.37 12.3464 18.3887 12.3838 18.426C12.4211 18.4633 12.4398 18.5077 12.4398 18.559V19.616C12.4398 19.6673 12.4211 19.7117 12.3838 19.749C12.3464 19.7863 12.3021 19.805 12.2508 19.805H10.9838V21.835Z" fill="white"/>
<path d="M15.958 18.37C16.7467 18.37 17.3767 18.5403 17.848 18.881C18.324 19.2217 18.562 19.749 18.562 20.463V21.177C18.562 21.905 18.3264 22.437 17.855 22.773C17.3884 23.1043 16.756 23.27 15.958 23.27H13.725C13.6737 23.27 13.6294 23.2513 13.592 23.214C13.5547 23.1767 13.536 23.1323 13.536 23.081V18.559C13.536 18.5077 13.5547 18.4633 13.592 18.426C13.6294 18.3887 13.6737 18.37 13.725 18.37H15.958ZM15.993 21.905C16.2124 21.905 16.385 21.8537 16.511 21.751C16.6417 21.6437 16.707 21.4943 16.707 21.303V20.337C16.707 20.1457 16.6417 19.9987 16.511 19.896C16.385 19.7887 16.2124 19.735 15.993 19.735H15.356V21.905H15.993Z" fill="white"/>
<path d="M24.1943 21.905C24.2456 21.905 24.29 21.9237 24.3273 21.961C24.3646 21.9983 24.3833 22.0427 24.3833 22.094V23.081C24.3833 23.1323 24.3646 23.1767 24.3273 23.214C24.29 23.2513 24.2456 23.27 24.1943 23.27H19.7703C19.719 23.27 19.6746 23.2513 19.6373 23.214C19.6 23.1767 19.5813 23.1323 19.5813 23.081V18.559C19.5813 18.5077 19.6 18.4633 19.6373 18.426C19.6746 18.3887 19.719 18.37 19.7703 18.37H24.1243C24.1756 18.37 24.22 18.3887 24.2573 18.426C24.2946 18.4633 24.3133 18.5077 24.3133 18.559V19.546C24.3133 19.5973 24.2946 19.6417 24.2573 19.679C24.22 19.7163 24.1756 19.735 24.1243 19.735H21.4013V20.176H23.7393C23.7906 20.176 23.835 20.1947 23.8723 20.232C23.9096 20.2693 23.9283 20.3137 23.9283 20.365V21.275C23.9283 21.3263 23.9096 21.3707 23.8723 21.408C23.835 21.4453 23.7906 21.464 23.7393 21.464H21.4013V21.905H24.1943Z" fill="white"/>
<path d="M30.6526 23.053C30.6619 23.0717 30.6666 23.0927 30.6666 23.116C30.6666 23.158 30.6502 23.1953 30.6176 23.228C30.5896 23.256 30.5546 23.27 30.5126 23.27H28.9236C28.8582 23.27 28.7976 23.2537 28.7416 23.221C28.6902 23.1883 28.6529 23.1463 28.6296 23.095L28.0136 21.709H27.4256V23.081C27.4256 23.1323 27.4069 23.1767 27.3696 23.214C27.3322 23.2513 27.2879 23.27 27.2366 23.27H25.7246C25.6732 23.27 25.6289 23.2513 25.5916 23.214C25.5542 23.1767 25.5356 23.1323 25.5356 23.081V18.559C25.5356 18.5077 25.5542 18.4633 25.5916 18.426C25.6289 18.3887 25.6732 18.37 25.7246 18.37H28.4476C28.8676 18.37 29.2339 18.4377 29.5466 18.573C29.8639 18.7083 30.1066 18.9043 30.2746 19.161C30.4426 19.4177 30.5266 19.7187 30.5266 20.064C30.5266 20.6987 30.2816 21.1583 29.7916 21.443L30.6526 23.053ZM28.3006 20.414C28.4032 20.414 28.4826 20.3813 28.5386 20.316C28.5946 20.246 28.6226 20.1597 28.6226 20.057C28.6226 19.9543 28.5946 19.8657 28.5386 19.791C28.4872 19.7117 28.4079 19.672 28.3006 19.672H27.4256V20.414H28.3006Z" fill="white"/>
</svg>
