<svg width="32" height="32" viewBox="0 0 32 32" fill="none" xmlns="http://www.w3.org/2000/svg">
<path d="M3.36572 13.082V3.01855H6.08301V10.8774H13.4292V13.082H3.36572Z" fill="#FF1744"/>
<path d="M28.6343 8.05762C28.6343 8.92188 28.4756 9.68604 28.1582 10.3501C27.8408 11.0093 27.3867 11.561 26.7959 12.0054C26.2051 12.4497 25.4873 12.7866 24.6426 13.0161C23.8027 13.2407 22.8579 13.353 21.8081 13.353C20.7583 13.353 19.8086 13.2407 18.959 13.0161C18.1143 12.7866 17.394 12.4497 16.7983 12.0054C16.2026 11.561 15.7437 11.0093 15.4214 10.3501C15.0991 9.68604 14.938 8.92188 14.938 8.05762C14.938 7.19336 15.0991 6.43164 15.4214 5.77246C15.7437 5.1084 16.2026 4.5542 16.7983 4.10986C17.394 3.66553 18.1143 3.33105 18.959 3.10645C19.8086 2.87695 20.7583 2.76221 21.8081 2.76221C22.8579 2.76221 23.8027 2.87695 24.6426 3.10645C25.4873 3.33105 26.2051 3.66553 26.7959 4.10986C27.3867 4.5542 27.8408 5.1084 28.1582 5.77246C28.4756 6.43164 28.6343 7.19336 28.6343 8.05762ZM25.8877 8.05762C25.8877 7.68164 25.8267 7.30811 25.7046 6.93701C25.5874 6.56104 25.375 6.22412 25.0674 5.92627C24.7646 5.62842 24.3496 5.38672 23.8223 5.20117C23.2949 5.01562 22.6235 4.92285 21.8081 4.92285C21.2612 4.92285 20.7803 4.9668 20.3652 5.05469C19.9502 5.1377 19.5913 5.25488 19.2886 5.40625C18.9858 5.55762 18.7319 5.73584 18.5269 5.94092C18.3218 6.14111 18.1582 6.3584 18.0361 6.59277C17.9141 6.82227 17.8262 7.06396 17.7725 7.31787C17.7236 7.56689 17.6992 7.81348 17.6992 8.05762C17.6992 8.30664 17.7236 8.55811 17.7725 8.81201C17.8262 9.06592 17.9141 9.31006 18.0361 9.54443C18.1582 9.77393 18.3218 9.98877 18.5269 10.189C18.7319 10.3892 18.9858 10.5649 19.2886 10.7163C19.5913 10.8628 19.9502 10.98 20.3652 11.0679C20.7803 11.1509 21.2612 11.1924 21.8081 11.1924C22.6235 11.1924 23.2949 11.0996 23.8223 10.9141C24.3496 10.7285 24.7646 10.4868 25.0674 10.189C25.375 9.89111 25.5874 9.55664 25.7046 9.18555C25.8267 8.80957 25.8877 8.43359 25.8877 8.05762Z" fill="#FF1744"/>
<rect x="0.731445" y="15.353" width="30.5371" height="13.8848" rx="6.94238" fill="#FF1744"/>
<path d="M9.41016 17.353C10.3307 17.353 11.1852 17.4328 11.9736 17.5923C12.7666 17.7472 13.4935 17.9478 14.1543 18.1938V20.4907C13.8945 20.3449 13.6006 20.2036 13.2725 20.0669C12.9489 19.9302 12.5957 19.8094 12.2129 19.7046C11.8301 19.5998 11.4199 19.5155 10.9824 19.4517C10.5449 19.3879 10.0846 19.356 9.60156 19.356C9 19.356 8.47591 19.3993 8.0293 19.4858C7.58268 19.5724 7.19987 19.6886 6.88086 19.8345C6.56185 19.9803 6.2998 20.1512 6.09473 20.3472C5.88965 20.5386 5.72786 20.7437 5.60938 20.9624C5.49089 21.1812 5.40885 21.4045 5.36328 21.6323C5.31771 21.8602 5.29492 22.0812 5.29492 22.2954C5.29492 22.4823 5.31315 22.6851 5.34961 22.9038C5.39062 23.1226 5.46354 23.3413 5.56836 23.5601C5.67773 23.7788 5.82812 23.9884 6.01953 24.189C6.21094 24.3895 6.45931 24.5672 6.76465 24.7222C7.07454 24.8771 7.44596 25.0024 7.87891 25.0981C8.31185 25.1893 8.82682 25.2349 9.42383 25.2349C9.72461 25.2349 9.98665 25.2257 10.21 25.2075C10.4333 25.1893 10.6361 25.1642 10.8184 25.1323C11.0052 25.1004 11.1784 25.0617 11.3379 25.0161C11.502 24.9705 11.6706 24.9227 11.8438 24.8726V23.7378H9V21.6802H14.3799V26.479C14.0426 26.5929 13.6644 26.6978 13.2451 26.7935C12.8304 26.8846 12.3997 26.9621 11.9531 27.0259C11.5111 27.0942 11.0667 27.1466 10.6201 27.1831C10.1735 27.2196 9.75195 27.2378 9.35547 27.2378C8.74023 27.2378 8.15006 27.1968 7.58496 27.1147C7.01986 27.0327 6.49121 26.9074 5.99902 26.7388C5.51139 26.5656 5.06478 26.3468 4.65918 26.0825C4.25814 25.8182 3.91406 25.5037 3.62695 25.1392C3.3444 24.7746 3.12337 24.3576 2.96387 23.8882C2.80892 23.4142 2.73145 22.8833 2.73145 22.2954C2.73145 21.7121 2.81348 21.1834 2.97754 20.7095C3.1416 20.2355 3.36947 19.8162 3.66113 19.4517C3.95736 19.0871 4.31055 18.7726 4.7207 18.5083C5.13542 18.244 5.58887 18.0275 6.08105 17.8589C6.5778 17.6857 7.10645 17.5581 7.66699 17.4761C8.2321 17.394 8.81315 17.353 9.41016 17.353Z" fill="white"/>
<path d="M29.2686 22.2954C29.2686 23.1021 29.1204 23.8153 28.8242 24.4351C28.528 25.0503 28.1042 25.5653 27.5527 25.98C27.0013 26.3947 26.3314 26.7091 25.543 26.9233C24.7591 27.133 23.8773 27.2378 22.8975 27.2378C21.9176 27.2378 21.0312 27.133 20.2383 26.9233C19.4499 26.7091 18.7777 26.3947 18.2217 25.98C17.6657 25.5653 17.2373 25.0503 16.9365 24.4351C16.6357 23.8153 16.4854 23.1021 16.4854 22.2954C16.4854 21.4888 16.6357 20.7778 16.9365 20.1626C17.2373 19.5428 17.6657 19.0256 18.2217 18.6108C18.7777 18.1961 19.4499 17.884 20.2383 17.6743C21.0312 17.4601 21.9176 17.353 22.8975 17.353C23.8773 17.353 24.7591 17.4601 25.543 17.6743C26.3314 17.884 27.0013 18.1961 27.5527 18.6108C28.1042 19.0256 28.528 19.5428 28.8242 20.1626C29.1204 20.7778 29.2686 21.4888 29.2686 22.2954ZM26.7051 22.2954C26.7051 21.9445 26.6481 21.5959 26.5342 21.2495C26.4248 20.8986 26.2266 20.5841 25.9395 20.3062C25.6569 20.0282 25.2695 19.8026 24.7773 19.6294C24.2852 19.4562 23.6585 19.3696 22.8975 19.3696C22.387 19.3696 21.9382 19.4106 21.5508 19.4927C21.1634 19.5701 20.8285 19.6795 20.5459 19.8208C20.2633 19.9621 20.0264 20.1284 19.835 20.3198C19.6436 20.5067 19.4909 20.7095 19.377 20.9282C19.263 21.1424 19.181 21.368 19.1309 21.605C19.0853 21.8374 19.0625 22.0675 19.0625 22.2954C19.0625 22.5278 19.0853 22.7625 19.1309 22.9995C19.181 23.2365 19.263 23.4644 19.377 23.6831C19.4909 23.8973 19.6436 24.0978 19.835 24.2847C20.0264 24.4715 20.2633 24.6356 20.5459 24.7769C20.8285 24.9136 21.1634 25.0229 21.5508 25.105C21.9382 25.1825 22.387 25.2212 22.8975 25.2212C23.6585 25.2212 24.2852 25.1346 24.7773 24.9614C25.2695 24.7882 25.6569 24.5627 25.9395 24.2847C26.2266 24.0067 26.4248 23.6945 26.5342 23.3481C26.6481 22.9972 26.7051 22.6463 26.7051 22.2954Z" fill="white"/>
</svg>
